#tb 0: 1/1000
0,          0,          0,        0,    70560, 427421e5fd2087c6ff7b87a27982332f
0,         33,         33,        0,    70560, b68311fd44e189e4174ac357d5415068
0,         66,         66,        0,    70560, 2c822ff45be7a1ea412d21ff82c7bc1d
0,        100,        100,        0,    70560, 34659186d93516eae1dd4d9a391d1c3f
0,        133,        133,        0,    70560, 1990dd822abc3a10f511589db5aa50f4
0,        166,        166,        0,    70560, 4a4dc076172c79d9fde3e17b47109835
0,        200,        200,        0,    70560, 51874c79850120537fa5c405721d0107
0,        233,        233,        0,    70560, 15d7897a128de9be90be17f1679012c9
0,        266,        266,        0,    70560, a8d9480accf8585e94161a5f7c371cef
0,        300,        300,        0,    70560, 8a9d3f09561b895b423ae9428f620b9b
